<svg xmlns="http://www.w3.org/2000/svg" enable-background="new 0 0 28 28" viewBox="0 0 28 28" id="facebook-logo"><path fill="#ffab66" d="m17.003 25.916-10.259.5c-2.747 0-4.994-2.291-4.994-5.091l.75-12.909c0-2.8 2.247-5.091 4.994-5.091l13.099-.259c2.747 0 4.994 2.291 4.994 5.091l.763 8.231c0 5.24-4.206 9.528-9.347 9.528z"></path><path d="m23.5 26h-5c-.276 0-.5-.224-.5-.5s.224-.5.5-.5h5c.827 0 1.5-.673 1.5-1.5v-19c0-.827-.673-1.5-1.5-1.5h-19c-.827 0-1.5.673-1.5 1.5v19c0 .827.673 1.5 1.5 1.5h9c.276 0 .5.224.5.5s-.224.5-.5.5h-9c-1.378 0-2.5-1.122-2.5-2.5v-19c0-1.378 1.122-2.5 2.5-2.5h19c1.378 0 2.5 1.122 2.5 2.5v19c0 1.378-1.122 2.5-2.5 2.5z"></path><path d="m18.5 26c-.276 0-.5-.224-.5-.5v-7c0-.276.224-.5.5-.5h2.609l.75-3h-3.359c-.276 0-.5-.224-.5-.5v-3c0-.827.673-1.5 1.5-1.5h1.5v-3h-2.317c-2.582 0-4.683 2.101-4.683 4.683v2.817c0 .276-.224.5-.5.5h-2.5v3h2.5c.276 0 .5.224.5.5v7c0 .276-.224.5-.5.5s-.5-.224-.5-.5v-6.5h-2.5c-.276 0-.5-.224-.5-.5v-4c0-.276.224-.5.5-.5h2.5v-2.317c0-3.134 2.549-5.683 5.683-5.683h2.817c.276 0 .5.224.5.5v4c0 .276-.224.5-.5.5h-2c-.276 0-.5.224-.5.5v2.5h3.5c.154 0 .299.071.394.192s.128.279.091.429l-1 4c-.056.223-.256.379-.485.379h-2.5v6.5c0 .276-.224.5-.5.5z"></path></svg>